HIERARCHY
ROOT Bip001_Pelvis
{
  OFFSET 33.2923 95.8902 -28.781
  CHANNELS 6 Xposition Yposition Zposition Zrotation Xrotation Yrotation
  JOINT Bip001_Spine
  {
    OFFSET 1.4188e-005 10.2191 -0.0116013
    CHANNELS 3 Zrotation Xrotation Yrotation
    JOINT Bip001_L_Thigh
    {
      OFFSET 11.0458 -10.2192 0.0116197
      CHANNELS 3 Zrotation Xrotation Yrotation
      JOINT Bip001_L_Calf
      {
        OFFSET -0.707118 -44.0221 0.360014
        CHANNELS 3 Zrotation Xrotation Yrotation
        JOINT Bip001_L_Foot
        {
          OFFSET -0.651902 -40.5938 -3.56146
          CHANNELS 3 Zrotation Xrotation Yrotation
          JOINT Bip001_L_Toe0
          {
            OFFSET 0.0530839 -10.2181 13.1504
            CHANNELS 3 Zrotation Xrotation Yrotation
            End Site
            {
              OFFSET -1.02532e-005 0 7.55606
            }
          }
        }
      }
    }
    JOINT Bip001_R_Thigh
    {
      OFFSET -11.0458 -10.2191 0.0115893
      CHANNELS 3 Zrotation Xrotation Yrotation
      JOINT Bip001_R_Calf
      {
        OFFSET 0.706994 -44.0221 0.35984
        CHANNELS 3 Zrotation Xrotation Yrotation
        JOINT Bip001_R_Foot
        {
          OFFSET 0.651786 -40.5938 -3.5613
          CHANNELS 3 Zrotation Xrotation Yrotation
          JOINT Bip001_R_Toe0
          {
            OFFSET -0.0531479 -10.2181 13.1504
            CHANNELS 3 Zrotation Xrotation Yrotation
            End Site
            {
              OFFSET -1.02894e-005 0 7.55606
            }
          }
        }
      }
    }
    JOINT Bip001_Spine1
    {
      OFFSET 1.87041e-005 14.5736 1.08638
      CHANNELS 3 Zrotation Xrotation Yrotation
      JOINT Bip001_Spine2
      {
        OFFSET 2.24614e-005 14.5058 -1.69078
        CHANNELS 3 Zrotation Xrotation Yrotation
        JOINT Bip001_Neck
        {
          OFFSET 2.20278e-005 15.3945 -0.489414
          CHANNELS 3 Zrotation Xrotation Yrotation
          JOINT Bip001_L_Clavicle
          {
            OFFSET 6.06036 -0.000579998 0.00836775
            CHANNELS 3 Zrotation Xrotation Yrotation
            JOINT Bip001_L_UpperArm
            {
              OFFSET 11.5509 -0.0600302 0.00193952
              CHANNELS 3 Zrotation Xrotation Yrotation
              JOINT Bip001_L_Forearm
              {
                OFFSET 25.9523 0.0806089 -2.15551
                CHANNELS 3 Zrotation Xrotation Yrotation
                JOINT Bip001_L_Hand
                {
                  OFFSET 32.2476 0.153767 1.63968
                  CHANNELS 3 Zrotation Xrotation Yrotation
                  JOINT Bip001_L_Finger0
                  {
                    OFFSET 6.04639 -2.20976 5.90322
                    CHANNELS 3 Zrotation Xrotation Yrotation
                    End Site
                    {
                      OFFSET 4.22376 -1.43895 0.606486
                    }
                  }
                  JOINT Bip001_L_Finger1
                  {
                    OFFSET 11.0826 -0.704819 -0.198153
                    CHANNELS 3 Zrotation Xrotation Yrotation
                    End Site
                    {
                      OFFSET 6.20028 -0.397518 -0.0787166
                    }
                  }
                }
              }
            }
          }
          JOINT Bip001_R_Clavicle
          {
            OFFSET -6.06036 -0.000563197 0.00835105
            CHANNELS 3 Zrotation Xrotation Yrotation
            JOINT Bip001_R_UpperArm
            {
              OFFSET -11.5509 -0.0599978 0.00190698
              CHANNELS 3 Zrotation Xrotation Yrotation
              JOINT Bip001_R_Forearm
              {
                OFFSET -25.9523 0.080682 -2.1559
                CHANNELS 3 Zrotation Xrotation Yrotation
                JOINT Bip001_R_Hand
                {
                  OFFSET -32.2476 0.153858 1.63991
                  CHANNELS 3 Zrotation Xrotation Yrotation
                  JOINT Bip001_R_Finger0
                  {
                    OFFSET -6.04641 -2.20974 5.90321
                    CHANNELS 3 Zrotation Xrotation Yrotation
                    End Site
                    {
                      OFFSET -4.22376 -1.43894 0.606474
                    }
                  }
                  JOINT Bip001_R_Finger1
                  {
                    OFFSET -11.0826 -0.704789 -0.198184
                    CHANNELS 3 Zrotation Xrotation Yrotation
                    End Site
                    {
                      OFFSET -6.20028 -0.397501 -0.0787338
                    }
                  }
                }
              }
            }
          }
          JOINT Bip001_Head
          {
            OFFSET 1.09673e-005 11.2744 2.05948
            CHANNELS 3 Zrotation Xrotation Yrotation
            End Site
            {
              OFFSET 2.89576e-005 20.8808 -2.77728e-005
            }
          }
        }
      }
    }
  }
}
MOTION
Frames:	13
Frame Time:	0.04
31.8376 95.8929 -28.4977 0.435683 -0.812455 -0.435783 -0.0092106 2.86657 -0.705823 5.08924 -2.2075 7.95532 -0.424434 5.78132 -11.3422 5.44411 -0.465556 -0.254314 -2.95094 -5.51002 5.08585 -3.0159 -3.85991 -0.657272 0.29374 10.7656 0.201773 -5.05145 -10.263 3.67545 1.80878 -6.39134 2.18439 0.0345477 5.75096 -1.41445 0.0345483 5.75099 -1.41445 -0.505096 1.15668 -2.38237 -23.4083 0.496283 -3.0707 -50.3508 41.2637 -2.33715 12.7737 0.476754 -24.3345 7.96748 0.979597 -2.09559 -3.18055e-015 6.36111e-015 -0 2.64834e-031 9.54167e-015 -1.59028e-015 29.2883 7.30974 19.2989 43.8312 44.1415 8.05352 -8.71034 -0.226941 8.39018 -5.7923 2.07648 2.59345 4.77083e-015 -3.18055e-015 -1.59028e-015 4.77083e-015 0 -1.59028e-015 2.58162 12.2342 -3.27825 
31.8301 95.8869 -28.4757 0.408807 -0.878626 -0.416946 -0.0104444 2.86659 -0.681152 5.10403 -2.09648 7.94423 -0.430245 5.68156 -11.479 5.87491 -0.121975 -0.294178 -2.84396 -5.77964 5.02652 -2.96516 -3.78099 -0.734087 0.265919 10.7751 0.166928 -5.01436 -10.2763 3.73861 1.80846 -6.39136 2.18148 0.0136297 5.75108 -1.36437 0.0136306 5.75111 -1.36438 -0.543155 1.10034 -2.42864 -23.334 0.551941 -3.07251 -50.3916 41.175 -2.27662 12.7966 0.540744 -24.3349 7.92155 0.917541 -2.09555 -0 -3.18055e-015 -0 0 0 -0 29.2475 7.35028 19.2702 44.0202 44.1035 7.99469 -8.72714 -0.291879 8.28916 -5.57735 2.02561 2.59348 1.59028e-015 3.18055e-015 7.95139e-016 1.59028e-015 3.18056e-015 1.59028e-015 2.64315 12.3698 -3.3561 
31.848 95.8928 -28.4575 0.44576 -0.894259 -0.384046 -0.0298126 2.86222 -0.648187 5.10045 -2.08058 7.91491 -0.376564 5.76515 -11.4486 4.99673 -0.727055 -0.221469 -3.14904 -5.32699 5.2289 -3.01123 -3.69565 -0.927911 0.264543 10.7195 0.214403 -4.99529 -10.298 3.8393 1.80667 -6.3923 2.16513 -0.0273038 5.72457 -1.29734 -0.027293 5.7246 -1.29732 -0.523668 0.959362 -2.48132 -23.3265 0.684705 -3.05661 -50.4033 41.0572 -2.24648 12.752 0.618202 -24.3554 7.86664 0.9275 -2.09556 3.18055e-015 -6.36111e-015 1.59028e-015 -3.18055e-015 -9.54167e-015 1.59028e-015 29.1824 7.46459 19.1841 44.4181 44.2367 7.52796 -8.85576 -0.621851 8.40514 -5.75553 2.01056 2.66556 -4.77083e-015 6.36111e-015 7.95139e-016 -4.77083e-015 9.54167e-015 7.95139e-016 2.62755 12.5736 -3.40097 
31.8538 95.8921 -28.4542 0.475899 -0.905618 -0.323554 -0.0391552 2.84612 -0.624243 5.08508 -2.07941 7.81175 -0.387581 5.77361 -11.4055 4.96939 -0.749433 -0.219999 -3.166 -5.27851 5.22896 -3.03872 -3.68173 -0.952796 0.269668 10.7664 0.207245 -5.03307 -10.3288 3.77683 1.80937 -6.41135 2.1829 -0.0463319 5.6925 -1.24878 -0.0462846 5.6925 -1.24887 -0.660659 0.804231 -2.4452 -23.2093 0.858358 -3.06426 -50.4228 41.0599 -2.20927 12.7942 0.683564 -24.3956 7.90654 0.901245 -2.10089 3.18055e-015 3.18055e-015 -0 3.18055e-015 3.18056e-015 -1.59028e-015 29.2641 7.57072 19.0647 44.8898 44.0695 6.94659 -8.9272 -0.757015 8.45886 -6.10987 2.00012 2.83705 -3.18055e-015 0 2.38542e-015 -4.77083e-015 3.18056e-015 1.59028e-015 2.79692 12.7493 -3.45951 
31.8581 95.8878 -28.447 0.489656 -0.925833 -0.228528 -0.0438128 2.83557 -0.612011 5.04921 -2.04661 7.7492 -0.414377 5.7042 -11.5408 5.44971 -0.34314 -0.261359 -2.98524 -5.60184 5.09883 -3.04659 -3.66312 -1.0085 0.259644 10.8372 0.17819 -5.03816 -10.3448 3.76238 1.81296 -6.44481 2.20351 -0.0523261 5.67142 -1.22431 -0.0523133 5.67142 -1.22432 -0.871904 0.669632 -2.38407 -23.0011 1.00341 -3.02856 -50.4698 41.0558 -2.23936 12.8811 0.875743 -24.3985 7.919 0.885334 -2.16566 -0 -9.54166e-015 -0 -0 -6.36111e-015 -0 29.42 7.66963 19.0025 45.5621 44.1727 5.95604 -9.30894 -1.32818 8.79251 -6.26989 2.37301 3.22688 -1.59028e-015 3.18055e-015 -0 0 3.18056e-015 -0 3.03003 12.8471 -3.535 
31.8767 95.8869 -28.4465 0.542351 -0.902638 -0.140208 -0.0503779 2.82505 -0.578075 4.99369 -2.07221 7.7248 -0.365498 5.70698 -11.5878 5.16748 -0.550382 -0.239637 -3.09077 -5.39502 5.19567 -3.10559 -3.68356 -1.1373 0.261815 10.892 0.177247 -5.04386 -10.3906 3.76285 1.814 -6.45549 2.20916 -0.0723091 5.65046 -1.15577 -0.0723091 5.65047 -1.15577 -0.926705 0.364516 -2.42292 -22.9086 1.30157 -2.97951 -50.4632 41.0739 -2.33188 12.871 0.924181 -24.3672 7.94847 0.911676 -2.21186 -3.18055e-015 0 1.59028e-015 -3.18055e-015 3.18056e-015 1.59028e-015 29.3159 7.93903 18.9488 46.3883 44.1974 4.81048 -9.84926 -2.01361 9.24603 -6.26279 2.89649 3.87152 3.18055e-015 0 -0 1.59028e-015 0 -0 3.06419 13.2004 -3.60972 
31.9251 95.8822 -28.4868 0.649632 -0.780154 -0.0965195 -0.077327 2.7872 -0.524884 4.87763 -2.19791 7.51074 -0.368924 5.69163 -11.4552 5.16389 -0.496711 -0.241148 -3.07427 -5.41602 5.16542 -3.24817 -3.87557 -1.08004 0.35052 11.0789 0.128613 -5.09685 -10.4461 3.64654 1.81837 -6.49171 2.21706 -0.129282 5.57497 -1.04786 -0.129282 5.57499 -1.04786 -0.923491 0.1864 -2.53235 -22.9064 1.46411 -2.95006 -50.4594 41.1823 -2.33219 12.8337 0.776296 -24.3593 7.94136 1.00287 -2.1613 6.36111e-015 0 3.18055e-015 3.18055e-015 -3.18056e-015 -0 29.1649 8.10953 18.9396 47.3681 44.41 3.50591 -10.5037 -3.00764 9.71833 -6.47652 3.5144 4.48879 0 3.18055e-015 -0 4.77083e-015 3.18056e-015 -1.59028e-015 3.08302 13.4249 -3.72021 
31.9188 95.8791 -28.4697 0.682534 -0.796633 0.0615254 -0.0843609 2.77608 -0.491407 4.87013 -2.19396 7.44003 -0.390374 5.68957 -11.5723 5.21238 -0.476842 -0.247485 -3.07215 -5.42203 5.15861 -3.27123 -3.79532 -1.37432 0.319218 11.0678 0.133859 -5.08106 -10.4952 3.71621 1.82793 -6.52825 2.24448 -0.142594 5.55273 -0.980366 -0.143853 5.55275 -0.980512 -1.11136 0.087049 -2.57981 -22.7515 1.56386 -2.92512 -50.4522 41.2275 -2.33715 12.872 0.734183 -24.3408 7.84977 1.07328 -2.12223 -6.36111e-015 -3.18055e-015 -0 -6.36111e-015 -3.18056e-015 1.59028e-015 29.0686 8.20476 19.058 48.7579 44.3376 1.7668 -11.5648 -4.16779 10.5624 -6.41786 4.22148 4.93795 0 0 -7.95139e-016 -1.59028e-015 0 -7.95139e-016 3.34609 13.4716 -3.90682 
31.9351 95.8765 -28.468 0.794403 -0.694466 0.287462 -0.113168 2.74107 -0.459611 4.76893 -2.28524 7.36611 -0.358454 5.6389 -11.7307 5.12589 -0.476401 -0.240007 -3.09022 -5.36523 5.16528 -3.38092 -3.86531 -1.75332 0.301496 11.1725 0.0896558 -5.05123 -10.6013 3.84104 1.84088 -6.59499 2.28486 -0.20464 5.48447 -0.915365 -0.20464 5.48451 -0.915369 -1.27182 -0.34068 -2.62149 -22.5808 1.93672 -2.68876 -50.479 41.0296 -2.44861 12.8621 0.91254 -24.262 7.79086 1.19373 -2.13889 -3.18055e-015 -6.36111e-015 6.36111e-015 1.76556e-031 -3.18056e-015 3.18055e-015 29.0343 8.60889 19.0514 50.6314 43.5996 -0.98002 -13.8924 -5.47537 12.8864 -3.85222 5.39501 4.88606 3.18055e-015 3.18055e-015 -7.95139e-016 6.36111e-015 0 -2.38542e-015 3.54528 13.8517 -4.06129 
31.9335 95.8712 -28.4533 0.810316 -0.691274 0.611359 -0.142877 2.73365 -0.420603 4.82472 -2.4181 7.49738 -0.347842 5.82356 -12.1535 4.97022 -0.674474 -0.222873 -3.17964 -5.24644 5.25492 -3.34641 -3.77623 -2.22879 0.224179 11.153 0.125748 -5.04783 -10.6372 3.90244 1.8509 -6.6621 2.32724 -0.266539 5.46826 -0.834764 -0.26627 5.46828 -0.835274 -1.27056 -0.892417 -2.70057 -22.3812 2.40375 -2.37833 -50.5852 40.8674 -2.60001 12.9042 1.12259 -24.2279 7.71657 1.07477 -2.21208 -3.18055e-015 -1.59028e-014 -0 3.18055e-015 -9.54167e-015 -0 29.3656 9.19176 18.8032 52.0985 40.7998 -4.58103 -18.1507 -4.43683 18.258 0.677115 7.23992 3.48712 1.59028e-015 0 7.95139e-016 3.18055e-015 0 -7.95139e-016 3.67839 14.2476 -4.18198 
31.9611 95.869 -28.4476 0.852051 -0.697022 0.945066 -0.16223 2.71586 -0.418131 4.81721 -2.5023 7.5316 -0.345783 5.92608 -12.4568 4.88118 -0.76834 -0.216036 -3.22117 -5.15658 5.27156 -3.37935 -3.68995 -2.68373 0.180502 11.1615 0.116098 -5.03562 -10.6904 3.98795 1.86196 -6.72282 2.38212 -0.310351 5.43283 -0.830119 -0.31005 5.43284 -0.829952 -1.35796 -1.20988 -2.66808 -21.9948 2.70331 -2.28261 -51.0653 40.4782 -2.49638 12.8771 1.09692 -24.2782 7.96924 1.02965 -2.29247 -3.18055e-015 3.18055e-015 -4.77083e-015 3.18055e-015 6.36111e-015 -6.36111e-015 29.5235 9.52102 18.7262 52.1576 34.1309 -5.92386 -22.2926 -8.58767 23.4914 9.76984 9.98515 4.59628 -1.59028e-015 -3.18055e-015 1.59028e-015 -3.18055e-015 0 2.38542e-015 3.81998 14.4551 -4.22181 
32.0038 95.8735 -28.4387 0.827888 -0.706395 1.2576 -0.158886 2.68542 -0.447847 4.9047 -2.58187 7.50434 -0.458361 6.09439 -12.5944 4.76547 -0.975261 -0.20088 -3.23704 -5.01691 5.25906 -3.34708 -3.51815 -3.05825 0.0780615 11.017 0.129301 -5.00201 -10.6475 4.08819 1.86848 -6.74762 2.40528 -0.297219 5.37197 -0.889697 -0.297219 5.37198 -0.889699 -1.6428 -1.47438 -2.49248 -21.6926 2.97875 -2.19569 -51.3251 40.3218 -2.13058 12.9271 1.03213 -24.6047 7.87357 0.898317 -2.20731 6.36111e-015 3.18055e-015 -3.18055e-015 0 6.36111e-015 -0 29.374 9.65556 18.7216 51.5121 26.7492 -5.30477 -26.8457 -8.00342 29.0329 11.9832 11.8786 6.28152 -6.36111e-015 -3.18055e-015 3.18055e-015 -6.36111e-015 -3.18056e-015 3.18055e-015 4.04433 14.7448 -4.21351 
32.1683 95.8772 -28.4376 1.20521 -0.554449 1.48675 -0.243553 2.62512 -0.483667 4.39589 -2.41026 7.28236 -0.360669 5.43563 -12.6649 4.92799 -0.473943 -0.231617 -3.17659 -5.17717 5.22714 -3.80842 -3.76902 -3.45817 0.121727 11.4742 0.202915 -4.99707 -10.8922 4.18817 1.89647 -6.82936 2.42319 -0.463044 5.25219 -0.956199 -0.464541 5.25222 -0.957035 -2.05607 -1.75496 -2.19746 -21.3463 3.27638 -2.05571 -51.3832 40.4566 -1.81374 12.8986 0.695487 -24.8882 8.02604 0.971593 -2.17391 3.18055e-015 3.18055e-015 -1.59028e-015 3.18055e-015 3.18056e-015 -0 29.1796 9.78478 18.823 50.5004 17.1651 -3.19025 -31.1347 -6.12893 36.9115 9.6341 14.7485 7.75223 9.54166e-015 -6.36111e-015 -3.18055e-015 9.54166e-015 -6.36111e-015 -6.36111e-015 4.54402 14.9807 -4.21872 
